HIERARCHY
ROOT Hips
{
	OFFSET -19.878815 -49.619598 87.647690
	CHANNELS 6 Xposition Yposition Zposition Zrotation Yrotation Xrotation
	JOINT Spine
	{
		OFFSET 0.000000 2.080109 8.814247
		CHANNELS 6 Xposition Yposition Zposition Zrotation Yrotation Xrotation
		JOINT Spine1
		{
			OFFSET 0.000000 0.000000 8.844139
			CHANNELS 6 Xposition Yposition Zposition Zrotation Yrotation Xrotation
			JOINT Spine2
			{
				OFFSET 0.000000 0.000000 11.682266
				CHANNELS 6 Xposition Yposition Zposition Zrotation Yrotation Xrotation
				JOINT Spine3
				{
					OFFSET 0.000000 0.000004 11.746704
					CHANNELS 6 Xposition Yposition Zposition Zrotation Yrotation Xrotation
					JOINT Neck
					{
						OFFSET 0.000000 0.000000 17.658264
						CHANNELS 6 Xposition Yposition Zposition Zrotation Yrotation Xrotation
						JOINT Neck1
						{
							OFFSET 0.000000 0.000000 5.101517
							CHANNELS 6 Xposition Yposition Zposition Zrotation Yrotation Xrotation
							JOINT Head
							{
								OFFSET 0.000000 0.000000 5.101517
								CHANNELS 6 Xposition Yposition Zposition Zrotation Yrotation Xrotation
								JOINT HeadEnd
								{
									OFFSET 0.000000 0.000000 11.655090
									CHANNELS 6 Xposition Yposition Zposition Zrotation Yrotation Xrotation
									End Site
									{
										OFFSET 0.000000 0.000000 0.100006
									}
								}
							}
						}
					}
					JOINT RightShoulder
					{
						OFFSET -2.625389 0.000000 11.175217
						CHANNELS 6 Xposition Yposition Zposition Zrotation Yrotation Xrotation
						JOINT RightArm
						{
							OFFSET 0.000000 0.000000 10.434708
							CHANNELS 6 Xposition Yposition Zposition Zrotation Yrotation Xrotation
							JOINT RightForeArm
							{
								OFFSET 0.000000 0.000004 29.628418
								CHANNELS 6 Xposition Yposition Zposition Zrotation Yrotation Xrotation
								JOINT RightHand
								{
									OFFSET 0.000000 0.000000 22.857605
									CHANNELS 6 Xposition Yposition Zposition Zrotation Yrotation Xrotation
									JOINT RightHandThumb1
									{
										OFFSET -2.867323 -2.944290 3.959564
										CHANNELS 6 Xposition Yposition Zposition Zrotation Yrotation Xrotation
										JOINT RightHandThumb2
										{
											OFFSET 0.000000 0.000000 3.350403
											CHANNELS 6 Xposition Yposition Zposition Zrotation Yrotation Xrotation
											JOINT RightHandThumb3
											{
												OFFSET 0.000000 0.000000 3.756516
												CHANNELS 6 Xposition Yposition Zposition Zrotation Yrotation Xrotation
												JOINT RightHandThumb4
												{
													OFFSET 0.000000 0.000000 3.147339
													CHANNELS 6 Xposition Yposition Zposition Zrotation Yrotation Xrotation
													End Site
													{
														OFFSET 0.000000 0.000000 0.100006
													}
												}
											}
										}
									}
									JOINT RightHandIndex1
									{
										OFFSET -0.086752 -2.345280 10.030899
										CHANNELS 6 Xposition Yposition Zposition Zrotation Yrotation Xrotation
										JOINT RightHandIndex2
										{
											OFFSET 0.000000 0.000000 4.061096
											CHANNELS 6 Xposition Yposition Zposition Zrotation Yrotation Xrotation
											JOINT RightHandIndex3
											{
												OFFSET 0.000000 0.000000 3.248871
												CHANNELS 6 Xposition Yposition Zposition Zrotation Yrotation Xrotation
												JOINT RightHandIndex4
												{
													OFFSET 0.000000 0.000000 2.639709
													CHANNELS 6 Xposition Yposition Zposition Zrotation Yrotation Xrotation
													End Site
													{
														OFFSET 0.000000 0.000000 0.100006
													}
												}
											}
										}
									}
									JOINT RightHandMiddle1
									{
										OFFSET 0.104101 -0.006767 9.502945
										CHANNELS 6 Xposition Yposition Zposition Zrotation Yrotation Xrotation
										JOINT RightHandMiddle2
										{
											OFFSET 0.000000 0.000000 4.568726
											CHANNELS 6 Xposition Yposition Zposition Zrotation Yrotation Xrotation
											JOINT RightHandMiddle3
											{
												OFFSET 0.000000 0.000000 3.654984
												CHANNELS 6 Xposition Yposition Zposition Zrotation Yrotation Xrotation
												JOINT RightHandMiddle4
												{
													OFFSET 0.000000 0.000000 2.741241
													CHANNELS 6 Xposition Yposition Zposition Zrotation Yrotation Xrotation
													End Site
													{
														OFFSET 0.000000 0.000000 0.100006
													}
												}
											}
										}
									}
									JOINT RightHandRing1
									{
										OFFSET 0.086752 2.267441 8.921707
										CHANNELS 6 Xposition Yposition Zposition Zrotation Yrotation Xrotation
										JOINT RightHandRing2
										{
											OFFSET 0.000000 0.000000 4.061096
											CHANNELS 6 Xposition Yposition Zposition Zrotation Yrotation Xrotation
											JOINT RightHandRing3
											{
												OFFSET 0.000000 0.000000 3.654984
												CHANNELS 6 Xposition Yposition Zposition Zrotation Yrotation Xrotation
												JOINT RightHandRing4
												{
													OFFSET 0.000000 0.000000 2.741241
													CHANNELS 6 Xposition Yposition Zposition Zrotation Yrotation Xrotation
													End Site
													{
														OFFSET 0.000000 0.000000 0.100006
													}
												}
											}
										}
									}
									JOINT RightHandPinky1
									{
										OFFSET -0.173504 4.467197 7.976990
										CHANNELS 6 Xposition Yposition Zposition Zrotation Yrotation Xrotation
										JOINT RightHandPinky2
										{
											OFFSET 0.000000 0.000000 3.350403
											CHANNELS 6 Xposition Yposition Zposition Zrotation Yrotation Xrotation
											JOINT RightHandPinky3
											{
												OFFSET 0.000000 0.000000 2.842758
												CHANNELS 6 Xposition Yposition Zposition Zrotation Yrotation Xrotation
												JOINT RightHandPinky4
												{
													OFFSET 0.000000 0.000000 2.639709
													CHANNELS 6 Xposition Yposition Zposition Zrotation Yrotation Xrotation
													End Site
													{
														OFFSET 0.000000 0.000000 0.100006
													}
												}
											}
										}
									}
									JOINT RightForeArmEnd
									{
										OFFSET 0.000000 0.000000 0.000000
										CHANNELS 6 Xposition Yposition Zposition Zrotation Yrotation Xrotation
										End Site
										{
											OFFSET 0.000000 0.000000 0.100006
										}
									}
								}
								JOINT RightArmEnd
								{
									OFFSET 0.000000 0.000000 0.000000
									CHANNELS 6 Xposition Yposition Zposition Zrotation Yrotation Xrotation
									End Site
									{
										OFFSET 0.000000 0.000000 0.100006
									}
								}
							}
						}
					}
					JOINT LeftShoulder
					{
						OFFSET 2.625389 0.000000 11.175217
						CHANNELS 6 Xposition Yposition Zposition Zrotation Yrotation Xrotation
						JOINT LeftArm
						{
							OFFSET 0.000000 0.000000 10.813629
							CHANNELS 6 Xposition Yposition Zposition Zrotation Yrotation Xrotation
							JOINT LeftForeArm
							{
								OFFSET 0.000000 0.000004 28.724777
								CHANNELS 6 Xposition Yposition Zposition Zrotation Yrotation Xrotation
								JOINT LeftHand
								{
									OFFSET 0.644384 0.328873 25.716171
									CHANNELS 6 Xposition Yposition Zposition Zrotation Yrotation Xrotation
									JOINT LeftHandThumb1
									{
										OFFSET 2.867323 -2.944290 3.959564
										CHANNELS 6 Xposition Yposition Zposition Zrotation Yrotation Xrotation
										JOINT LeftHandThumb2
										{
											OFFSET 0.000000 0.000000 3.350403
											CHANNELS 6 Xposition Yposition Zposition Zrotation Yrotation Xrotation
											JOINT LeftHandThumb3
											{
												OFFSET 0.000000 0.000000 3.756516
												CHANNELS 6 Xposition Yposition Zposition Zrotation Yrotation Xrotation
												JOINT LeftHandThumb4
												{
													OFFSET 0.000000 0.000000 3.100006
													CHANNELS 6 Xposition Yposition Zposition Zrotation Yrotation Xrotation
													End Site
													{
														OFFSET 0.000000 0.000000 0.100006
													}
												}
											}
										}
									}
									JOINT LeftHandIndex1
									{
										OFFSET 0.086752 -2.345280 10.030899
										CHANNELS 6 Xposition Yposition Zposition Zrotation Yrotation Xrotation
										JOINT LeftHandIndex2
										{
											OFFSET 0.000000 0.000000 4.061096
											CHANNELS 6 Xposition Yposition Zposition Zrotation Yrotation Xrotation
											JOINT LeftHandIndex3
											{
												OFFSET 0.000000 0.000000 3.248871
												CHANNELS 6 Xposition Yposition Zposition Zrotation Yrotation Xrotation
												JOINT LeftHandIndex4
												{
													OFFSET 0.000000 0.000000 2.639709
													CHANNELS 6 Xposition Yposition Zposition Zrotation Yrotation Xrotation
													End Site
													{
														OFFSET 0.000000 0.000000 0.100006
													}
												}
											}
										}
									}
									JOINT LeftHandMiddle1
									{
										OFFSET -0.104101 -0.006767 9.502945
										CHANNELS 6 Xposition Yposition Zposition Zrotation Yrotation Xrotation
										JOINT LeftHandMiddle2
										{
											OFFSET 0.000000 0.000000 4.568726
											CHANNELS 6 Xposition Yposition Zposition Zrotation Yrotation Xrotation
											JOINT LeftHandMiddle3
											{
												OFFSET 0.000000 0.000000 3.654984
												CHANNELS 6 Xposition Yposition Zposition Zrotation Yrotation Xrotation
												JOINT LeftHandMiddle4
												{
													OFFSET 0.000000 0.000000 2.741241
													CHANNELS 6 Xposition Yposition Zposition Zrotation Yrotation Xrotation
													End Site
													{
														OFFSET 0.000000 0.000000 0.100006
													}
												}
											}
										}
									}
									JOINT LeftHandRing1
									{
										OFFSET -0.086752 2.267441 8.921707
										CHANNELS 6 Xposition Yposition Zposition Zrotation Yrotation Xrotation
										JOINT LeftHandRing2
										{
											OFFSET 0.000000 0.000000 4.061096
											CHANNELS 6 Xposition Yposition Zposition Zrotation Yrotation Xrotation
											JOINT LeftHandRing3
											{
												OFFSET 0.000000 0.000000 3.654984
												CHANNELS 6 Xposition Yposition Zposition Zrotation Yrotation Xrotation
												JOINT LeftHandRing4
												{
													OFFSET 0.000000 0.000000 2.741241
													CHANNELS 6 Xposition Yposition Zposition Zrotation Yrotation Xrotation
													End Site
													{
														OFFSET 0.000000 0.000000 0.100006
													}
												}
											}
										}
									}
									JOINT LeftHandPinky1
									{
										OFFSET 0.173504 4.467197 7.976990
										CHANNELS 6 Xposition Yposition Zposition Zrotation Yrotation Xrotation
										JOINT LeftHandPinky2
										{
											OFFSET 0.000000 0.000000 3.350403
											CHANNELS 6 Xposition Yposition Zposition Zrotation Yrotation Xrotation
											JOINT LeftHandPinky3
											{
												OFFSET 0.000000 0.000000 2.842758
												CHANNELS 6 Xposition Yposition Zposition Zrotation Yrotation Xrotation
												JOINT LeftHandPinky4
												{
													OFFSET 0.000000 0.000000 2.639709
													CHANNELS 6 Xposition Yposition Zposition Zrotation Yrotation Xrotation
													End Site
													{
														OFFSET 0.000000 0.000000 0.100006
													}
												}
											}
										}
									}
									JOINT LeftForeArmEnd
									{
										OFFSET 0.000000 0.000000 0.000000
										CHANNELS 6 Xposition Yposition Zposition Zrotation Yrotation Xrotation
										End Site
										{
											OFFSET 0.000000 0.000000 0.100006
										}
									}
								}
								JOINT LeftArmEnd
								{
									OFFSET 0.000000 0.000000 0.000000
									CHANNELS 6 Xposition Yposition Zposition Zrotation Yrotation Xrotation
									End Site
									{
										OFFSET 0.000000 0.000000 0.100006
									}
								}
							}
						}
					}
				}
			}
		}
	}
	JOINT RightUpLeg
	{
		OFFSET -11.289944 0.000000 0.000000
		CHANNELS 6 Xposition Yposition Zposition Zrotation Yrotation Xrotation
		JOINT RightLeg
		{
			OFFSET 0.000000 -0.000004 -38.200321
			CHANNELS 6 Xposition Yposition Zposition Zrotation Yrotation Xrotation
			JOINT RightFoot
			{
				OFFSET 0.000000 -0.000004 -39.900856
				CHANNELS 6 Xposition Yposition Zposition Zrotation Yrotation Xrotation
				JOINT RightToeBase
				{
					OFFSET 0.000000 -15.261642 0.000001
					CHANNELS 6 Xposition Yposition Zposition Zrotation Yrotation Xrotation
					JOINT RightToeBaseEnd
					{
						OFFSET 0.000000 -7.370712 0.000001
						CHANNELS 6 Xposition Yposition Zposition Zrotation Yrotation Xrotation
						End Site
						{
							OFFSET 0.000000 0.000000 0.100000
						}
					}
				}
				JOINT RightLegEnd
				{
					OFFSET 0.000000 0.000000 0.000000
					CHANNELS 6 Xposition Yposition Zposition Zrotation Yrotation Xrotation
					End Site
					{
						OFFSET 0.000000 0.000000 0.100000
					}
				}
			}
			JOINT RightUpLegEnd
			{
				OFFSET 0.000000 0.000000 0.000000
				CHANNELS 6 Xposition Yposition Zposition Zrotation Yrotation Xrotation
				End Site
				{
					OFFSET 0.000000 0.000000 0.099998
				}
			}
		}
	}
	JOINT LeftUpLeg
	{
		OFFSET 11.315661 0.000000 0.000000
		CHANNELS 6 Xposition Yposition Zposition Zrotation Yrotation Xrotation
		JOINT LeftLeg
		{
			OFFSET 0.000000 -0.000004 -38.200321
			CHANNELS 6 Xposition Yposition Zposition Zrotation Yrotation Xrotation
			JOINT LeftFoot
			{
				OFFSET 0.000000 -0.000004 -39.900856
				CHANNELS 6 Xposition Yposition Zposition Zrotation Yrotation Xrotation
				JOINT LeftToeBase
				{
					OFFSET 0.000000 -15.261642 0.000001
					CHANNELS 6 Xposition Yposition Zposition Zrotation Yrotation Xrotation
					JOINT LeftToeBaseEnd
					{
						OFFSET 0.000000 -7.539993 0.000001
						CHANNELS 6 Xposition Yposition Zposition Zrotation Yrotation Xrotation
						End Site
						{
							OFFSET 0.000000 0.000000 0.100000
						}
					}
				}
				JOINT LeftLegEnd
				{
					OFFSET 0.000000 0.000000 0.000000
					CHANNELS 6 Xposition Yposition Zposition Zrotation Yrotation Xrotation
					End Site
					{
						OFFSET 0.000000 0.000000 0.100000
					}
				}
			}
			JOINT LeftUpLegEnd
			{
				OFFSET 0.000000 0.000000 0.000000
				CHANNELS 6 Xposition Yposition Zposition Zrotation Yrotation Xrotation
				End Site
				{
					OFFSET 0.000000 0.000000 0.099998
				}
			}
		}
	}
}
MOTION
Frames: 2
Frame Time: 0.016667
-9.743196 -18.529648 88.405975 8.986683 -8.517707 -5.790788 -0.000001 2.080103 8.814240 -1.047857 -1.817006 7.114554 0.000000 -0.000001 8.844140 -0.304254 -0.459467 4.344974 0.000001 0.000005 11.682261 -0.976135 0.791095 6.265789 0.000006 -0.000002 11.746709 -0.134083 2.375114 4.453990 0.000005 0.000006 17.658258 0.554055 -5.785545 15.806828 0.000006 0.000005 5.101531 0.855712 3.009656 -4.009077 -0.000003 -0.000003 5.101511 3.834545 -1.508979 -15.643887 0.000002 -0.000003 11.655106 0.000000 -0.000000 -0.000000 -2.625396 0.000002 11.175205 9.837378 -71.384008 -0.369237 -0.000030 -0.000005 10.434710 56.450417 -55.228882 -61.089519 0.000009 0.000001 29.628433 19.123109 -1.338964 110.847406 0.000027 -0.000033 22.857597 -32.059791 63.317848 8.550696 -2.867327 -2.944298 3.959568 32.315493 -13.910461 56.898450 0.000005 -0.000001 3.350412 -5.383788 4.498566 -10.250390 -0.000009 0.000006 3.756528 -3.652182 3.227401 -7.070030 0.000001 -0.000009 3.147355 0.000001 0.000001 -0.000000 -0.086744 -2.345294 10.030916 -6.462459 12.709348 16.571417 -0.000002 -0.000003 4.061080 0.529165 -0.019892 0.008044 -0.000001 -0.000001 3.248885 0.026083 0.010978 0.007706 -0.000003 0.000007 2.639694 0.000000 0.000000 -0.000000 0.104103 -0.006770 9.502947 -1.755761 10.398313 11.291856 -0.000002 -0.000005 4.568733 0.524790 0.000004 -0.000025 -0.000001 -0.000003 3.654998 0.001218 0.000003 0.000002 -0.000001 -0.000004 2.741241 0.000001 -0.000000 0.000000 0.086756 2.267439 8.921749 6.320127 9.611543 4.054148 0.000002 0.000006 4.061109 -1.018511 -0.000006 0.000020 -0.000006 -0.000001 3.655007 -0.016023 -0.000003 -0.000475 -0.000003 0.000006 2.741242 0.000000 -0.000000 -0.000001 -0.173504 4.467193 7.976989 14.968226 10.885712 -2.734854 -0.000002 0.000006 3.350374 -2.009869 -0.000011 0.000053 0.000003 0.000011 2.842786 -0.021040 -0.000014 -0.001750 0.000003 0.000004 2.639725 0.000000 -0.000000 -0.000001 0.000001 -0.000005 0.000014 0.000001 0.000001 0.000002 -0.000004 -0.000009 0.000000 0.000002 0.000000 0.000000 2.625401 0.000001 11.175217 -9.068845 70.234548 -0.946147 -0.000012 0.000002 10.813635 -47.482024 62.068798 -53.976427 -0.000017 -0.000001 28.724781 -24.322707 3.379024 113.288878 0.644383 0.328894 25.716181 -1.147686 -27.509796 19.722583 2.867318 -2.944279 3.959571 -32.365022 13.750601 57.171876 0.000004 0.000008 3.350402 5.044779 -4.261328 -9.634898 -0.000009 -0.000010 3.756515 3.426255 -3.050289 -6.647981 0.000002 0.000000 3.100006 0.000000 -0.000001 0.000000 0.086751 -2.345284 10.030891 -9.338540 -3.927483 14.274555 0.000006 -0.000002 4.061121 0.504056 -0.000025 -0.000001 -0.000005 0.000002 3.248906 0.003825 0.000013 -0.000019 0.000004 -0.000003 2.639725 -0.000000 0.000001 0.000000 -0.104100 -0.006765 9.502949 -4.284303 -4.073766 10.398792 0.000005 0.000001 4.568717 0.495347 -0.000010 0.000007 0.000000 -0.000004 3.655004 0.020243 0.000002 -0.000006 0.000003 -0.000000 2.741273 0.000001 0.000002 -0.000001 -0.086752 2.267446 8.921698 3.939080 -3.560704 6.179631 -0.000007 -0.000006 4.061139 -1.005815 -0.000013 -0.000001 0.000011 -0.000003 3.654986 -0.004524 0.000000 -0.000004 -0.000000 0.000000 2.741256 0.000001 -0.000001 0.000001 0.173501 4.467196 7.977000 12.638755 -2.704414 2.877272 -0.000001 -0.000003 3.350407 -2.001737 -0.034251 0.001203 -0.000005 -0.000002 2.842770 -0.002117 0.018454 -0.000652 -0.000005 -0.000001 2.639694 0.000000 -0.000000 0.000000 -0.000004 0.000000 0.000014 0.000002 -0.000002 0.000000 -0.000012 0.000014 -0.000017 -0.000002 -0.000001 0.000002 -11.289948 -0.000009 0.000001 -4.895651 5.942464 4.606709 -0.000005 -0.000009 -38.200329 -0.466932 0.173903 20.412138 0.000001 -0.000008 -39.900856 -19.141385 3.629241 10.598531 0.000003 -15.261649 0.000007 -1.516144 0.137430 -29.362201 -0.000002 -7.370720 0.000002 -0.000000 0.000001 -0.000000 0.000002 -0.000007 0.000000 -0.000001 -0.000001 0.000001 -0.000002 -0.000001 0.000002 0.000000 0.000000 0.000002 11.315658 -0.000006 0.000010 -12.654023 -3.118832 -12.015687 0.000001 -0.000008 -38.200321 0.641855 -0.144609 12.696659 -0.000003 -0.000001 -39.900860 -6.422061 8.378731 37.257972 -0.000001 -15.261652 0.000004 -0.058687 0.367615 -33.324906 -0.000001 -7.540001 0.000003 0.000000 0.000000 -0.000000 -0.000000 -0.000003 -0.000001 0.000000 0.000000 0.000005 -0.000003 -0.000004 0.000004 0.000000 0.000000 -0.000000 
-9.392532 -18.718685 88.337196 8.906295 -8.113221 -5.775996 -0.000001 2.080106 8.814253 -1.053036 -1.863835 6.911048 -0.000000 0.000001 8.844129 -0.328460 -0.507413 4.240667 0.000002 0.000001 11.682264 -1.085188 0.726508 6.363773 0.000000 0.000000 11.746704 -0.177834 2.312762 4.598849 0.000002 -0.000005 17.658289 0.664761 -5.487448 16.176384 -0.000000 0.000001 5.101535 0.870905 2.955670 -3.800994 -0.000002 0.000011 5.101489 3.853682 -1.507392 -15.869707 -0.000001 0.000004 11.655120 0.000000 -0.000002 0.000000 -2.625398 -0.000006 11.175216 9.572591 -71.973870 -0.383835 0.000008 -0.000003 10.434704 52.695592 -58.993976 -57.953397 0.000003 0.000004 29.628422 20.347204 -1.515596 106.778977 -0.000003 -0.000008 22.857615 -32.405733 61.025090 6.035977 -2.867325 -2.944290 3.959569 32.315517 -13.910467 56.898372 0.000002 0.000010 3.350391 -5.383804 4.498546 -10.250462 -0.000000 0.000004 3.756523 -3.652147 3.227400 -7.069920 -0.000003 -0.000003 3.147354 0.000000 0.000001 0.000000 -0.086740 -2.345285 10.030945 -6.426591 12.946069 16.601130 0.000002 -0.000006 4.061102 0.526086 -0.000012 0.007524 -0.000001 0.000000 3.248888 0.024692 -0.000000 0.007043 0.000002 -0.000008 2.639709 -0.000000 -0.000000 0.000000 0.104100 -0.006765 9.502960 -1.753521 10.408458 11.538852 0.000004 -0.000000 4.568752 0.520061 -0.000011 -0.000019 0.000003 -0.000008 3.654971 0.000118 0.000009 0.000000 0.000002 -0.000005 2.741242 0.000000 0.000000 -0.000000 0.086759 2.267445 8.921753 6.217922 9.064718 4.494092 -0.000004 0.000001 4.061116 -1.015296 -0.000069 0.000018 -0.000001 0.000002 3.655001 -0.013082 0.000039 -0.000369 0.000002 -0.000003 2.741271 -0.000000 0.000000 0.000001 -0.173497 4.467195 7.977006 14.743653 9.735390 -2.362704 -0.000002 -0.000005 3.350442 -2.007379 -0.000015 0.000041 0.000000 -0.000002 2.842773 -0.016620 -0.000008 -0.001059 0.000001 -0.000006 2.639710 -0.000000 0.000000 -0.000001 0.000004 0.000004 0.000031 0.000000 -0.000001 -0.000001 0.000004 0.000000 0.000000 0.000001 -0.000002 -0.000001 2.625402 -0.000000 11.175231 -8.839683 70.831514 -0.989110 0.000008 0.000002 10.813624 -42.306328 65.008429 -48.979164 -0.000011 0.000015 28.724791 -25.714117 3.959558 109.142700 0.644391 0.328885 25.716169 -0.140595 -23.933546 16.680751 2.867327 -2.944287 3.959570 -32.220646 14.232676 56.352851 0.000002 -0.000002 3.350390 6.069834 -4.961977 -11.486757 0.000002 0.000000 3.756491 4.107943 -3.576627 -7.916132 -0.000003 -0.000001 3.099976 0.000003 -0.000000 -0.000001 0.086752 -2.345280 10.030897 -8.784855 -0.866938 11.745338 -0.000009 -0.000002 4.061110 0.502754 0.000125 0.000007 0.000004 -0.000001 3.248880 0.002595 -0.000065 0.000020 0.000012 -0.000006 2.639726 -0.000001 0.000002 -0.000001 -0.104093 -0.006763 9.502933 -3.704679 -0.857712 8.502955 -0.000002 -0.000003 4.568728 0.495011 0.000075 0.000005 0.000004 -0.000003 3.654979 0.016643 -0.000006 0.000003 0.000003 0.000004 2.741270 -0.000001 -0.000003 0.000002 -0.086754 2.267445 8.921700 4.535003 -0.109253 5.333420 -0.000004 0.000000 4.061069 -1.001689 0.219199 0.013399 0.000010 -0.000001 3.654981 -0.001330 0.219164 0.013393 0.000003 -0.000002 2.741228 -0.000000 0.000004 -0.000000 0.173508 4.467201 7.976996 13.209038 0.596911 3.087521 -0.000013 -0.000004 3.350432 -1.998650 0.889079 0.173029 -0.000006 -0.000004 2.842746 0.002031 0.890458 0.173063 -0.000005 -0.000006 2.639710 0.000001 -0.000001 -0.000001 -0.000000 0.000002 -0.000000 0.000001 -0.000000 -0.000000 0.000001 0.000018 0.000016 -0.000006 0.000003 0.000000 -11.289944 -0.000009 0.000018 -4.750335 5.747292 4.876095 -0.000001 -0.000008 -38.200321 -0.494737 0.182445 20.242049 -0.000004 -0.000008 -39.900852 -19.149400 3.371522 10.655421 0.000001 -15.261651 0.000004 -1.506004 0.204310 -29.392175 -0.000001 -7.370713 0.000002 0.000001 0.000001 0.000000 -0.000000 -0.000003 -0.000001 -0.000001 -0.000001 -0.000001 0.000000 -0.000004 0.000006 -0.000000 0.000000 -0.000003 11.315656 -0.000007 0.000007 -11.919398 -2.948697 -10.935406 -0.000003 -0.000014 -38.200329 0.742053 -0.172681 13.099765 -0.000002 -0.000001 -39.900852 -6.731105 9.729275 37.445085 0.000001 -15.261654 0.000013 -0.225312 0.443412 -33.156037 -0.000003 -7.540001 0.000004 -0.000001 -0.000000 0.000000 0.000001 -0.000004 0.000002 -0.000000 0.000000 -0.000002 -0.000002 -0.000004 0.000008 0.000000 0.000000 -0.000000 
